<mxfile host="app.diagrams.net" agent="Mozilla/5.0 (Windows NT 10.0; Win64; x64) AppleWebKit/537.36 (KHTML, like Gecko) Chrome/136.0.0.0 Safari/537.36" version="27.0.2">
  <diagram name="Page-1" id="5f0bae14-7c28-e335-631c-24af17079c00">
    <mxGraphModel dx="872" dy="439" grid="1" gridSize="10" guides="1" tooltips="1" connect="1" arrows="1" fold="1" page="1" pageScale="1" pageWidth="1100" pageHeight="850" background="none" math="0" shadow="0">
      <root>
        <mxCell id="0" />
        <mxCell id="1" parent="0" />
        <mxCell id="2Dks7X9wwPNTb7-MbkP4-1" value="&amp;lt;&amp;lt;Component&amp;gt;&amp;gt;&lt;div&gt;UI&lt;/div&gt;" style="shape=module;align=left;spacingLeft=20;align=center;verticalAlign=top;whiteSpace=wrap;html=1;" vertex="1" parent="1">
          <mxGeometry x="70" y="200" width="130" height="50" as="geometry" />
        </mxCell>
        <mxCell id="2Dks7X9wwPNTb7-MbkP4-2" value="&amp;lt;&amp;lt;Component&amp;gt;&amp;gt;&lt;div&gt;Booking manager&lt;/div&gt;" style="shape=module;align=left;spacingLeft=20;align=center;verticalAlign=top;whiteSpace=wrap;html=1;" vertex="1" parent="1">
          <mxGeometry x="310" y="200" width="130" height="50" as="geometry" />
        </mxCell>
        <mxCell id="2Dks7X9wwPNTb7-MbkP4-3" value="&amp;lt;&amp;lt;Component&amp;gt;&amp;gt;&lt;div&gt;Authentication manager&lt;/div&gt;" style="shape=module;align=left;spacingLeft=20;align=center;verticalAlign=top;whiteSpace=wrap;html=1;" vertex="1" parent="1">
          <mxGeometry x="310" y="90" width="130" height="50" as="geometry" />
        </mxCell>
        <mxCell id="2Dks7X9wwPNTb7-MbkP4-4" value="&amp;lt;&amp;lt;Component&amp;gt;&amp;gt;&lt;div&gt;Payment manager&lt;/div&gt;" style="shape=module;align=left;spacingLeft=20;align=center;verticalAlign=top;whiteSpace=wrap;html=1;" vertex="1" parent="1">
          <mxGeometry x="310" y="310" width="130" height="50" as="geometry" />
        </mxCell>
        <mxCell id="2Dks7X9wwPNTb7-MbkP4-5" value="&amp;lt;&amp;lt;Component&amp;gt;&amp;gt;&lt;div&gt;Database&lt;/div&gt;" style="shape=module;align=left;spacingLeft=20;align=center;verticalAlign=top;whiteSpace=wrap;html=1;" vertex="1" parent="1">
          <mxGeometry x="770" y="210" width="130" height="50" as="geometry" />
        </mxCell>
        <mxCell id="2Dks7X9wwPNTb7-MbkP4-6" value="&amp;lt;&amp;lt;Component&amp;gt;&amp;gt;&lt;div&gt;User factory&lt;/div&gt;" style="shape=module;align=left;spacingLeft=20;align=center;verticalAlign=top;whiteSpace=wrap;html=1;" vertex="1" parent="1">
          <mxGeometry x="530" y="10" width="130" height="50" as="geometry" />
        </mxCell>
        <mxCell id="2Dks7X9wwPNTb7-MbkP4-7" value="&lt;div&gt;&lt;br&gt;&lt;/div&gt;&lt;div&gt;Booking strategy&lt;/div&gt;" style="shape=module;align=left;spacingLeft=20;align=center;verticalAlign=top;whiteSpace=wrap;html=1;" vertex="1" parent="1">
          <mxGeometry x="530" y="140" width="130" height="50" as="geometry" />
        </mxCell>
        <mxCell id="2Dks7X9wwPNTb7-MbkP4-8" value="&amp;lt;&amp;lt;Component&amp;gt;&amp;gt;&lt;div&gt;Notification manager&lt;/div&gt;" style="shape=module;align=left;spacingLeft=20;align=center;verticalAlign=top;whiteSpace=wrap;html=1;" vertex="1" parent="1">
          <mxGeometry x="530" y="270" width="130" height="50" as="geometry" />
        </mxCell>
        <mxCell id="2Dks7X9wwPNTb7-MbkP4-9" value="&amp;lt;&amp;lt;Component&amp;gt;&amp;gt;&lt;div&gt;Payment gateway&lt;/div&gt;" style="shape=module;align=left;spacingLeft=20;align=center;verticalAlign=top;whiteSpace=wrap;html=1;" vertex="1" parent="1">
          <mxGeometry x="540" y="400" width="130" height="50" as="geometry" />
        </mxCell>
        <mxCell id="2Dks7X9wwPNTb7-MbkP4-10" value="" style="endArrow=open;endSize=12;dashed=1;html=1;rounded=0;exitX=1;exitY=0.5;exitDx=0;exitDy=0;" edge="1" parent="1" source="2Dks7X9wwPNTb7-MbkP4-1" target="2Dks7X9wwPNTb7-MbkP4-2">
          <mxGeometry width="160" relative="1" as="geometry">
            <mxPoint x="390" y="240" as="sourcePoint" />
            <mxPoint x="550" y="240" as="targetPoint" />
            <Array as="points">
              <mxPoint x="260" y="225" />
            </Array>
          </mxGeometry>
        </mxCell>
        <mxCell id="2Dks7X9wwPNTb7-MbkP4-11" value="" style="endArrow=open;endSize=12;dashed=1;html=1;rounded=0;exitX=1;exitY=0.5;exitDx=0;exitDy=0;entryX=-0.015;entryY=0.58;entryDx=0;entryDy=0;entryPerimeter=0;" edge="1" parent="1" source="2Dks7X9wwPNTb7-MbkP4-1" target="2Dks7X9wwPNTb7-MbkP4-3">
          <mxGeometry width="160" relative="1" as="geometry">
            <mxPoint x="390" y="240" as="sourcePoint" />
            <mxPoint x="550" y="240" as="targetPoint" />
            <Array as="points">
              <mxPoint x="260" y="225" />
              <mxPoint x="260" y="120" />
            </Array>
          </mxGeometry>
        </mxCell>
        <mxCell id="2Dks7X9wwPNTb7-MbkP4-12" value="" style="endArrow=open;endSize=12;dashed=1;html=1;rounded=0;exitX=1;exitY=0.5;exitDx=0;exitDy=0;entryX=-0.008;entryY=0.46;entryDx=0;entryDy=0;entryPerimeter=0;" edge="1" parent="1" source="2Dks7X9wwPNTb7-MbkP4-1" target="2Dks7X9wwPNTb7-MbkP4-4">
          <mxGeometry width="160" relative="1" as="geometry">
            <mxPoint x="390" y="240" as="sourcePoint" />
            <mxPoint x="550" y="240" as="targetPoint" />
            <Array as="points">
              <mxPoint x="260" y="225" />
              <mxPoint x="260" y="335" />
            </Array>
          </mxGeometry>
        </mxCell>
        <mxCell id="2Dks7X9wwPNTb7-MbkP4-14" value="" style="rounded=0;orthogonalLoop=1;jettySize=auto;html=1;endArrow=halfCircle;endFill=0;endSize=6;strokeWidth=1;sketch=0;exitX=0;exitY=0;exitDx=0;exitDy=15;exitPerimeter=0;" edge="1" parent="1" source="2Dks7X9wwPNTb7-MbkP4-7">
          <mxGeometry relative="1" as="geometry">
            <mxPoint x="490" y="245" as="sourcePoint" />
            <mxPoint x="480" y="220" as="targetPoint" />
            <Array as="points">
              <mxPoint x="480" y="155" />
            </Array>
          </mxGeometry>
        </mxCell>
        <mxCell id="2Dks7X9wwPNTb7-MbkP4-15" value="" style="rounded=0;orthogonalLoop=1;jettySize=auto;html=1;endArrow=oval;endFill=0;sketch=0;sourcePerimeterSpacing=0;targetPerimeterSpacing=0;endSize=10;exitX=1;exitY=0.5;exitDx=0;exitDy=0;" edge="1" parent="1" source="2Dks7X9wwPNTb7-MbkP4-2">
          <mxGeometry relative="1" as="geometry">
            <mxPoint x="450" y="245" as="sourcePoint" />
            <mxPoint x="480" y="225" as="targetPoint" />
          </mxGeometry>
        </mxCell>
        <mxCell id="2Dks7X9wwPNTb7-MbkP4-16" value="" style="ellipse;whiteSpace=wrap;html=1;align=center;aspect=fixed;fillColor=none;strokeColor=none;resizable=0;perimeter=centerPerimeter;rotatable=0;allowArrows=0;points=[];outlineConnect=1;" vertex="1" parent="1">
          <mxGeometry x="465" y="240" width="10" height="10" as="geometry" />
        </mxCell>
        <mxCell id="2Dks7X9wwPNTb7-MbkP4-17" value="" style="endArrow=open;endSize=12;dashed=1;html=1;rounded=0;exitX=1;exitY=0.5;exitDx=0;exitDy=0;entryX=0.038;entryY=0.48;entryDx=0;entryDy=0;entryPerimeter=0;" edge="1" parent="1" source="2Dks7X9wwPNTb7-MbkP4-3" target="2Dks7X9wwPNTb7-MbkP4-6">
          <mxGeometry width="160" relative="1" as="geometry">
            <mxPoint x="390" y="240" as="sourcePoint" />
            <mxPoint x="550" y="240" as="targetPoint" />
            <Array as="points">
              <mxPoint x="500" y="115" />
              <mxPoint x="500" y="34" />
            </Array>
          </mxGeometry>
        </mxCell>
        <mxCell id="2Dks7X9wwPNTb7-MbkP4-18" value="" style="endArrow=open;endSize=12;dashed=1;html=1;rounded=0;exitX=1;exitY=0.5;exitDx=0;exitDy=0;entryX=0.454;entryY=-0.06;entryDx=0;entryDy=0;entryPerimeter=0;" edge="1" parent="1" source="2Dks7X9wwPNTb7-MbkP4-3" target="2Dks7X9wwPNTb7-MbkP4-5">
          <mxGeometry width="160" relative="1" as="geometry">
            <mxPoint x="400" y="250" as="sourcePoint" />
            <mxPoint x="860" y="150" as="targetPoint" />
            <Array as="points">
              <mxPoint x="829" y="120" />
            </Array>
          </mxGeometry>
        </mxCell>
        <mxCell id="2Dks7X9wwPNTb7-MbkP4-20" value="" style="endArrow=open;endSize=12;dashed=1;html=1;rounded=0;exitX=1;exitY=0.75;exitDx=0;exitDy=0;" edge="1" parent="1" source="2Dks7X9wwPNTb7-MbkP4-2">
          <mxGeometry width="160" relative="1" as="geometry">
            <mxPoint x="410" y="260" as="sourcePoint" />
            <mxPoint x="530" y="280" as="targetPoint" />
            <Array as="points">
              <mxPoint x="480" y="238" />
              <mxPoint x="480" y="280" />
            </Array>
          </mxGeometry>
        </mxCell>
        <mxCell id="2Dks7X9wwPNTb7-MbkP4-21" value="" style="endArrow=open;endSize=12;dashed=1;html=1;rounded=0;exitX=1;exitY=0.75;exitDx=0;exitDy=0;entryX=0.038;entryY=0.56;entryDx=0;entryDy=0;entryPerimeter=0;" edge="1" parent="1" source="2Dks7X9wwPNTb7-MbkP4-2" target="2Dks7X9wwPNTb7-MbkP4-5">
          <mxGeometry width="160" relative="1" as="geometry">
            <mxPoint x="420" y="270" as="sourcePoint" />
            <mxPoint x="770" y="240" as="targetPoint" />
          </mxGeometry>
        </mxCell>
        <mxCell id="2Dks7X9wwPNTb7-MbkP4-23" value="" style="endArrow=open;endSize=12;dashed=1;html=1;rounded=0;exitX=1;exitY=0.5;exitDx=0;exitDy=0;entryX=0.008;entryY=0.84;entryDx=0;entryDy=0;entryPerimeter=0;" edge="1" parent="1" source="2Dks7X9wwPNTb7-MbkP4-4" target="2Dks7X9wwPNTb7-MbkP4-8">
          <mxGeometry width="160" relative="1" as="geometry">
            <mxPoint x="465" y="360" as="sourcePoint" />
            <mxPoint x="625" y="360" as="targetPoint" />
            <Array as="points">
              <mxPoint x="480" y="335" />
              <mxPoint x="480" y="310" />
            </Array>
          </mxGeometry>
        </mxCell>
        <mxCell id="2Dks7X9wwPNTb7-MbkP4-24" value="" style="endArrow=open;endSize=12;dashed=1;html=1;rounded=0;exitX=1;exitY=0.5;exitDx=0;exitDy=0;entryX=0.008;entryY=0.44;entryDx=0;entryDy=0;entryPerimeter=0;" edge="1" parent="1" source="2Dks7X9wwPNTb7-MbkP4-4" target="2Dks7X9wwPNTb7-MbkP4-9">
          <mxGeometry width="160" relative="1" as="geometry">
            <mxPoint x="440" y="290" as="sourcePoint" />
            <mxPoint x="600" y="290" as="targetPoint" />
            <Array as="points">
              <mxPoint x="480" y="335" />
              <mxPoint x="480" y="420" />
            </Array>
          </mxGeometry>
        </mxCell>
        <mxCell id="2Dks7X9wwPNTb7-MbkP4-25" value="" style="endArrow=open;endSize=12;dashed=1;html=1;rounded=0;exitX=1;exitY=0.5;exitDx=0;exitDy=0;entryX=0.5;entryY=1;entryDx=0;entryDy=0;" edge="1" parent="1" source="2Dks7X9wwPNTb7-MbkP4-4" target="2Dks7X9wwPNTb7-MbkP4-5">
          <mxGeometry width="160" relative="1" as="geometry">
            <mxPoint x="450" y="300" as="sourcePoint" />
            <mxPoint x="610" y="300" as="targetPoint" />
            <Array as="points">
              <mxPoint x="835" y="335" />
            </Array>
          </mxGeometry>
        </mxCell>
      </root>
    </mxGraphModel>
  </diagram>
</mxfile>
